<svg aria-hidden="true" style="width:0;height:0;position:absolute;overflow:hidden" xmlns="http://www.w3.org/2000/svg"><defs><symbol id="icon-search" viewBox="0 0 32 32"><path d="m31.008 27.231-7.58-6.447c-.784-.705-1.622-1.029-2.299-.998a11.954 11.954 0 0 0 2.87-7.787c0-6.627-5.373-12-12-12s-12 5.373-12 12 5.373 12 12 12c2.972 0 5.691-1.081 7.787-2.87-.031.677.293 1.515.998 2.299l6.447 7.58c1.104 1.226 2.907 1.33 4.007.23s.997-2.903-.23-4.007zM12 20a8 8 0 1 1 0-16 8 8 0 0 1 0 16z"/></symbol><symbol id="country-search" viewBox="0 0 13 8"><path d="M6.5 8 .005.5h12.99L6.5 8Z" fill="#939393"/></symbol><symbol id="search-icon"><path d="M1.509 1.509A5.118 5.118 0 0 1 5.152 0c1.376 0 2.67.536 3.643 1.509a5.118 5.118 0 0 1 1.51 3.643 5.114 5.114 0 0 1-1.27 3.386l2.862 2.861a.352.352 0 0 1-.498.498L8.538 9.036a5.114 5.114 0 0 1-3.386 1.268A5.118 5.118 0 0 1 1.51 8.795 5.118 5.118 0 0 1 0 5.152c0-1.376.536-2.67 1.509-3.643zm.498 6.789a4.453 4.453 0 0 0 6.29 0 4.453 4.453 0 0 0 0-6.291A4.434 4.434 0 0 0 5.153.706a4.435 4.435 0 0 0-3.145 1.3 4.453 4.453 0 0 0 0 6.292z" fill="#939393"/></symbol><symbol id="clear-search" viewBox="0 0 25 25"><path d="M1.286 25a1.286 1.286 0 0 1-.909-2.196L22.804.377a1.286 1.286 0 1 1 1.82 1.819L2.195 24.623a1.29 1.29 0 0 1-.91.377z" fill="#939393"/><path d="M23.715 25c-.33 0-.659-.125-.91-.377L.378 2.196A1.286 1.286 0 0 1 2.196.376l22.427 22.428A1.286 1.286 0 0 1 23.715 25z" fill="#939393"/></symbol><symbol id="moon" viewBox="0 0 32 32"><path d="M17.701 32a15.97 15.97 0 0 0 12.429-5.925c.442-.544-.04-1.339-.723-1.209-7.763 1.478-14.891-4.474-14.891-12.31 0-4.514 2.416-8.665 6.344-10.9.605-.345.453-1.262-.235-1.389-.879-.17-1.89-.267-2.923-.268-8.832 0-16 7.157-16 16 0 8.832 7.157 16 16 16z"/></symbol><symbol id="sun" viewBox="0 0 32 32"><path d="M16 10c-3.306 0-6 2.694-6 6s2.694 6 6 6 6-2.694 6-6-2.694-6-6-6zm15.4 5.031-5.919-2.956L27.575 5.8c.281-.85-.525-1.656-1.369-1.369l-6.275 2.094L16.969.6c-.4-.8-1.537-.8-1.938 0l-2.956 5.919-6.281-2.094c-.85-.281-1.656.525-1.369 1.369l2.094 6.275L.6 15.032c-.8.4-.8 1.538 0 1.938l5.919 2.956-2.094 6.281c-.281.85.525 1.656 1.369 1.369l6.275-2.094 2.956 5.919c.4.8 1.538.8 1.938 0l2.956-5.919 6.275 2.094c.85.281 1.656-.525 1.369-1.369l-2.094-6.275 5.919-2.956c.813-.406.813-1.544.012-1.944zm-9.744 6.625c-3.119 3.119-8.194 3.119-11.313 0s-3.119-8.194 0-11.313c3.119-3.119 8.194-3.119 11.313 0s3.119 8.194 0 11.313z"/></symbol></defs></svg>